<svg width="512" height="512" viewBox="0 0 512 512" xmlns="http://www.w3.org/2000/svg">
  <defs>
    <linearGradient id="gradient" x1="0%" y1="0%" x2="100%" y2="100%">
      <stop offset="0%" style="stop-color:#2563eb;stop-opacity:1" />
      <stop offset="100%" style="stop-color:#1e40af;stop-opacity:1" />
    </linearGradient>
  </defs>
  
  <!-- Background circle -->
  <circle cx="256" cy="256" r="240" fill="url(#gradient)" stroke="#1e3a8a" stroke-width="8"/>
  
  <!-- Terminal window -->
  <rect x="96" y="140" width="320" height="200" rx="12" fill="#1f2937" stroke="#374151" stroke-width="2"/>
  
  <!-- Terminal header -->
  <rect x="96" y="140" width="320" height="32" rx="12" fill="#374151"/>
  <circle cx="120" cy="156" r="6" fill="#ef4444"/>
  <circle cx="144" cy="156" r="6" fill="#f59e0b"/>
  <circle cx="168" cy="156" r="6" fill="#10b981"/>
  
  <!-- Terminal content -->
  <rect x="112" y="188" width="200" height="8" rx="4" fill="#10b981"/>
  <rect x="112" y="208" width="160" height="8" rx="4" fill="#6b7280"/>
  <rect x="112" y="228" width="240" height="8" rx="4" fill="#6b7280"/>
  <rect x="112" y="248" width="120" height="8" rx="4" fill="#10b981"/>
  
  <!-- SSH Key icon -->
  <g transform="translate(320, 200)">
    <!-- Key body -->
    <rect x="0" y="16" width="60" height="16" rx="8" fill="#fbbf24"/>
    <!-- Key teeth -->
    <rect x="52" y="8" width="8" height="8" fill="#fbbf24"/>
    <rect x="52" y="32" width="8" height="8" fill="#fbbf24"/>
    <rect x="44" y="12" width="8" height="4" fill="#fbbf24"/>
    <rect x="44" y="28" width="8" height="4" fill="#fbbf24"/>
    <!-- Key ring -->
    <circle cx="8" cy="24" r="12" fill="none" stroke="#fbbf24" stroke-width="4"/>
  </g>
  
  <!-- Connection lines -->
  <path d="M 180 280 Q 256 320 340 280" stroke="#10b981" stroke-width="4" fill="none"/>
  <path d="M 140 300 Q 256 340 380 300" stroke="#3b82f6" stroke-width="4" fill="none"/>
  
  <!-- Network nodes -->
  <circle cx="140" cy="300" r="8" fill="#10b981"/>
  <circle cx="180" cy="280" r="8" fill="#10b981"/>
  <circle cx="340" cy="280" r="8" fill="#3b82f6"/>
  <circle cx="380" cy="300" r="8" fill="#3b82f6"/>
</svg>